<svg width="24" height="24" viewBox="0 0 24 24" fill="none" xmlns="http://www.w3.org/2000/svg">
<path d="M13.7275 9.56094C13.7275 9.37073 13.652 9.18831 13.5175 9.05381C13.383 8.91931 13.2006 8.84375 13.0104 8.84375H7.27285C7.08264 8.84375 6.90022 8.91931 6.76572 9.05381C6.63122 9.18831 6.55566 9.37073 6.55566 9.56094C6.55566 9.75115 6.63122 9.93357 6.76572 10.0681C6.90022 10.2026 7.08264 10.2781 7.27285 10.2781H13.0104C13.2006 10.2781 13.383 10.2026 13.5175 10.0681C13.652 9.93357 13.7275 9.75115 13.7275 9.56094ZM12.7713 12.4297C12.7713 12.2395 12.6957 12.0571 12.5612 11.9226C12.4267 11.7881 12.2443 11.7125 12.0541 11.7125H7.27285C7.08264 11.7125 6.90022 11.7881 6.76572 11.9226C6.63122 12.0571 6.55566 12.2395 6.55566 12.4297C6.55566 12.6199 6.63122 12.8023 6.76572 12.9368C6.90022 13.0713 7.08264 13.1469 7.27285 13.1469H12.0541C12.2443 13.1469 12.4267 13.0713 12.5612 12.9368C12.6957 12.8023 12.7713 12.6199 12.7713 12.4297ZM13.0104 14.5813C13.2006 14.5813 13.383 14.6568 13.5175 14.7913C13.652 14.9258 13.7275 15.1082 13.7275 15.2984C13.7275 15.4886 13.652 15.6711 13.5175 15.8056C13.383 15.9401 13.2006 16.0156 13.0104 16.0156H7.27285C7.08264 16.0156 6.90022 15.9401 6.76572 15.8056C6.63122 15.6711 6.55566 15.4886 6.55566 15.2984C6.55566 15.1082 6.63122 14.9258 6.76572 14.7913C6.90022 14.6568 7.08264 14.5813 7.27285 14.5813H13.0104Z" fill="#624DE3"/>
<path fill-rule="evenodd" clip-rule="evenodd" d="M6.55566 21.0359H18.9869C19.6844 21.0359 20.3532 20.7588 20.8464 20.2657C21.3395 19.7725 21.6166 19.1036 21.6166 18.4062V13.1468C21.6166 12.9566 21.541 12.7742 21.4065 12.6397C21.272 12.5052 21.0896 12.4296 20.8994 12.4296H17.7916V4.9642C17.7916 3.60345 16.253 2.81168 15.1457 3.6025L14.9783 3.72203C14.6119 3.98215 14.1734 4.12158 13.7241 4.12089C13.2747 4.1202 12.8367 3.97945 12.471 3.7182C11.8606 3.28375 11.1299 3.05029 10.3807 3.05029C9.6314 3.05029 8.90075 3.28375 8.2903 3.7182C7.92465 3.97945 7.48666 4.1202 7.03727 4.12089C6.58788 4.12158 6.14946 3.98215 5.78301 3.72203L5.61567 3.6025C4.50833 2.81168 2.96973 3.6025 2.96973 4.9642V17.45C2.96973 18.401 3.34753 19.3131 4.02002 19.9856C4.69252 20.6581 5.60461 21.0359 6.55566 21.0359ZM9.12415 4.88483C9.4913 4.6242 9.93041 4.48419 10.3807 4.48419C10.8309 4.48419 11.27 4.6242 11.6372 4.88483C12.246 5.32004 12.9755 5.55441 13.7239 5.55527C14.4723 5.55612 15.2023 5.32342 15.8122 4.88961L15.9795 4.77008C16.0152 4.74465 16.0572 4.72953 16.101 4.72638C16.1447 4.72323 16.1884 4.73216 16.2274 4.7522C16.2664 4.77224 16.2992 4.80261 16.3221 4.84C16.3449 4.87739 16.3571 4.92036 16.3572 4.9642V18.4062C16.3572 18.8365 16.4605 19.2429 16.6441 19.6015H6.55566C5.98503 19.6015 5.43778 19.3748 5.03428 18.9713C4.63078 18.5678 4.4041 18.0206 4.4041 17.45V4.9642C4.40422 4.92036 4.41638 4.87739 4.43927 4.84C4.46217 4.80261 4.4949 4.77224 4.53389 4.7522C4.57288 4.73216 4.61663 4.72323 4.66036 4.72638C4.70409 4.72953 4.74611 4.74465 4.78182 4.77008L4.94916 4.88961C5.55901 5.32342 6.28902 5.55612 7.03742 5.55527C7.78582 5.55441 8.5153 5.32004 9.12415 4.88483ZM17.7916 18.4062V13.864H20.1822V18.4062C20.1822 18.7232 20.0563 19.0273 19.8321 19.2514C19.608 19.4756 19.3039 19.6015 18.9869 19.6015C18.6699 19.6015 18.3659 19.4756 18.1417 19.2514C17.9175 19.0273 17.7916 18.7232 17.7916 18.4062Z" fill="#624DE3"/>
</svg>
