<svg width="16" height="16" viewBox="0 0 16 16" fill="none" xmlns="http://www.w3.org/2000/svg">
<g clip-path="url(#clip0_456_401)">
<path d="M3.63086 0.212524V5.21252M11.6309 0.212524V5.21252M3.13086 7.71252H6.13086M12.1309 7.71252H9.13086M3.13086 10.7125H6.13086M9.13086 10.7125H12.1309M1.63086 2.71252H13.6309C13.8961 2.71252 14.1504 2.81788 14.338 3.00542C14.5255 3.19295 14.6309 3.44731 14.6309 3.71252V13.7125C14.6309 13.9777 14.5255 14.2321 14.338 14.4196C14.1504 14.6072 13.8961 14.7125 13.6309 14.7125H1.63086C1.36564 14.7125 1.11129 14.6072 0.923753 14.4196C0.736216 14.2321 0.630859 13.9777 0.630859 13.7125V3.71252C0.630859 3.44731 0.736216 3.19295 0.923753 3.00542C1.11129 2.81788 1.36564 2.71252 1.63086 2.71252Z" stroke="#624DE3" stroke-width="0.95625"/>
</g>
<defs>
<clipPath id="clip0_456_401">
<rect width="15" height="15" fill="white" transform="translate(0.131836 0.212524)"/>
</clipPath>
</defs>
</svg>
