<svg width="24" height="24" viewBox="0 0 24 24" fill="none" xmlns="http://www.w3.org/2000/svg">
<path d="M16.1511 13.2578C15.5595 13.2578 15.0552 13.0506 14.6383 12.6363C14.2214 12.2219 14.0129 11.7192 14.0129 11.1283C14.0129 10.5373 14.2201 10.0333 14.6345 9.61642C15.0488 9.1995 15.5515 8.99104 16.1425 8.99104C16.7334 8.99104 17.2374 9.19822 17.6543 9.6126C18.0712 10.027 18.2797 10.5293 18.2797 11.1196C18.2797 11.71 18.0725 12.2142 17.6581 12.6324C17.2438 13.0506 16.7414 13.2591 16.1511 13.2578ZM11.1451 18.259V17.1784C11.1451 16.97 11.1971 16.7717 11.301 16.5837C11.4049 16.3956 11.5451 16.2442 11.7217 16.1294C12.3905 15.7482 13.0917 15.4562 13.8255 15.2535C14.5586 15.0508 15.3325 14.9494 16.1473 14.9494C16.9607 14.9494 17.7343 15.0508 18.4681 15.2535C19.2018 15.4562 19.9031 15.7482 20.5718 16.1294C20.7478 16.2436 20.888 16.395 20.9926 16.5837C21.0971 16.7724 21.1491 16.9706 21.1484 17.1784V18.259H11.1451ZM4.69043 13.1469V12.1906H11.3842V13.1469H4.69043ZM4.69043 5.4969V4.54065H15.2092V5.4969H4.69043ZM12.1597 9.3219H4.69043V8.36565H12.7076C12.5948 8.51419 12.4922 8.66496 12.3997 8.81796C12.3073 8.97095 12.2266 9.13894 12.1597 9.3219Z" fill="#624DE3"/>
</svg>
